<?xml version="1.0" encoding="UTF-8"?> <svg xmlns="http://www.w3.org/2000/svg" width="38.447" height="50" viewBox="0 0 38.447 50"><g data-name="icon- lock"><g data-name="Group 1633"><path data-name="Path 4496" d="M50.01 31.939V20.407a15.377 15.377 0 0 0-30.755 0v3.846h7.686v-3.846a7.691 7.691 0 0 1 15.383 0v11.532H19.256a3.846 3.846 0 0 0-3.846 3.851v15.35a3.846 3.846 0 0 0 3.846 3.89H50.01a3.846 3.846 0 0 0 3.846-3.89V35.79a3.846 3.846 0 0 0-3.846-3.851zM34.633 47.316a3.84 3.84 0 1 1 2.719-1.123 3.84 3.84 0 0 1-2.719 1.123z" transform="translate(-15.41 -5.03)" style="fill:#ec4a09;fill-rule:evenodd"></path></g></g></svg> 