<?xml version="1.0" encoding="UTF-8"?> <svg xmlns="http://www.w3.org/2000/svg" width="49.998" height="50" viewBox="0 0 49.998 50"><defs><style> .cls-1{fill:#ec4a09} </style></defs><g id="icon-rocket" transform="translate(-4.99 -6.009)"><path id="Path_4494" data-name="Path 4494" class="cls-1" d="M54.988 7.257a1.245 1.245 0 0 0-1.245-1.248c-9.376.017-16.654.419-26.229 9.99a45.66 45.66 0 0 0-6.631 8.48A8.735 8.735 0 0 0 9.163 27.4l-3.919 6.245c-.517.817-.224 1.14.7.838a18.057 18.057 0 0 1 10.354-.317l10.54 10.548a18.07 18.07 0 0 1-.321 10.347c-.3.919.024 1.209.84.7l6.243-3.922a8.74 8.74 0 0 0 2.921-11.721 45.571 45.571 0 0 0 8.483-6.631c9.563-9.574 9.963-16.853 9.984-26.23zM40 25.989a4.995 4.995 0 1 1 5-4.995 5 5 0 0 1-5 4.995z"></path><path id="Path_4495" data-name="Path 4495" class="cls-1" d="M13.242 28.422c-3.028-3.031 0-9.09 0-9.09C4.155 22.358 7.183 32.967 5.669 36c3.028-1.514 13.637 1.514 16.666-7.573 0-.005-6.064 3.026-9.093-.005z" transform="translate(.937 18.396)"></path></g></svg> 