<svg xmlns="http://www.w3.org/2000/svg" xmlns:xlink="http://www.w3.org/1999/xlink" viewBox="0 0 51.3 48.9">
 <defs>
  <linearGradient id="a" x1="51.5" x2="46.4" y1="22.2" y2="20.5" gradientUnits="userSpaceOnUse">
   <stop offset="0" stop-color="#000e90"/>
   <stop offset=".1" stop-color="#000c7c"/>
   <stop offset=".3" stop-color="#00085c"/>
   <stop offset=".4" stop-color="#000849"/>
   <stop offset=".5" stop-color="#000742"/>
  </linearGradient>
  <linearGradient id="b" x1="85.5" x2="80.4" y1="22.2" y2="20.5" gradientTransform="matrix(-1 0 0 1 85.3 0)" xlink:href="#a"/>
  <linearGradient id="c" x1="59.7" x2="59.7" y1="62.9" y2="14" gradientTransform="rotate(180 42.6 31.5)" gradientUnits="userSpaceOnUse">
   <stop offset="0" stop-color="#c9c9c9"/>
   <stop offset=".4" stop-color="#cccccc"/>
   <stop offset=".5" stop-color="#87868b"/>
   <stop offset="1" stop-color="#999999"/>
  </linearGradient>
  <linearGradient id="d" x1="59.7" x2="59.7" y1="62.3" y2="14.6" gradientTransform="rotate(180 42.6 31.5)" gradientUnits="userSpaceOnUse">
   <stop offset="0" stop-color="#dadada"/>
   <stop offset=".1" stop-color="#dededf"/>
   <stop offset=".3" stop-color="#e8eaee"/>
   <stop offset=".3" stop-color="#e8eaee"/>
   <stop offset=".4" stop-color="#f2f2f2"/>
   <stop offset=".5" stop-color="#87868b"/>
   <stop offset="1" stop-color="#c1c1c1"/>
  </linearGradient>
  <linearGradient id="e" x1="59.7" x2="59.7" y1="58.1" y2="18.8" gradientTransform="rotate(180 42.6 31.5)" gradientUnits="userSpaceOnUse">
   <stop offset="0" stop-color="#c1c1c1"/>
   <stop offset=".5" stop-color="#87868b"/>
   <stop offset=".6" stop-color="#f2f2f2"/>
   <stop offset=".7" stop-color="#e8eaee"/>
   <stop offset=".7" stop-color="#e8eaee"/>
   <stop offset=".9" stop-color="#dededf"/>
   <stop offset="1" stop-color="#dadada"/>
  </linearGradient>
  <radialGradient id="f" cx="25.9" cy="13.8" r="28.7" gradientUnits="userSpaceOnUse">
   <stop offset="0" stop-color="#0010c2"/>
   <stop offset=".2" stop-color="#000fbd"/>
   <stop offset=".5" stop-color="#000fb0"/>
   <stop offset=".7" stop-color="#000e9a"/>
   <stop offset="1" stop-color="#000d7b"/>
   <stop offset="1" stop-color="#000d7a"/>
  </radialGradient>
  <radialGradient id="g" cx="25.7" cy="24.4" r="18.9" gradientUnits="userSpaceOnUse">
   <stop offset="1" stop-color="white"/>
   <stop offset="1" stop-color="#fafafc"/>
   <stop offset="1" stop-color="#ededf3"/>
   <stop offset="1" stop-color="#d7d8e4"/>
   <stop offset="1" stop-color="#b8bbcf"/>
   <stop offset="1" stop-color="#9095b5"/>
   <stop offset="1" stop-color="#5f6594"/>
   <stop offset="1" stop-color="#262e6e"/>
   <stop offset="1" stop-color="#000954"/>
  </radialGradient>
  <linearGradient id="h" x1="25.7" x2="25.7" y1="6.7" y2="32.3" gradientUnits="userSpaceOnUse">
   <stop offset="0" stop-color="#53578c"/>
   <stop offset=".2" stop-color="#505387"/>
   <stop offset=".3" stop-color="#484b7a"/>
   <stop offset=".5" stop-color="#3b3e64"/>
   <stop offset=".7" stop-color="#292b45"/>
   <stop offset=".9" stop-color="#12131e"/>
   <stop offset="1"/>
  </linearGradient>
  <linearGradient id="i" x1=".5" x2="50.8" y1="10.4" y2="10.4" gradientUnits="userSpaceOnUse">
   <stop offset="0" stop-color="#000fb3"/>
   <stop offset=".2" stop-color="#000e8f"/>
   <stop offset=".5" stop-color="#000a63"/>
   <stop offset=".7" stop-color="#000c79"/>
   <stop offset=".8" stop-color="#000e90"/>
   <stop offset="1" stop-color="#0010c2"/>
  </linearGradient>
 </defs>
 <g style="isolation:isolate">
  <path fill="url(#a)" d="M50.8 16s1.5 3.2-.7 9.7-2.5-9.7-2.5-9.7z"/>
  <path fill="url(#b)" d="M.5 16s-1.5 3.2.7 9.7S3.7 16 3.7 16z"/>
  <path fill="url(#c)" d="M1.2 24.4a24.5 24.5 0 1 1 24.5 24.5A24.5 24.5 0 0 1 1.2 24.4z"/>
  <path fill="url(#d)" d="M1.8 24.4a23.9 23.9 0 1 1 23.9 23.9A23.9 23.9 0 0 1 1.8 24.4z"/>
  <circle cx="25.7" cy="24.4" r="19.7" fill="url(#e)"/>
  <path fill="url(#f)" d="M6.7 24.4a19 19 0 1 1 19 19 19 19 0 0 1-19-19z"/>
  <path fill="url(#g)" d="M6.7 24.4a19 19 0 1 1 19 19 19 19 0 0 1-19-19z" style="mix-blend-mode:multiply"/>
  <path fill="url(#h)" d="M25.7 5.5a19 19 0 0 0-19 18.9l.1 2a62 62 0 0 0 18.9 2.8 61.3 61.3 0 0 0 18.8-2.8 12.7 12.7 0 0 0 .1-2A18.9 18.9 0 0 0 25.7 5.5z" style="mix-blend-mode:screen"/>
  <path fill="#c2c2c2" d="M48.3 16.7a23.7 23.7 0 0 0-7.6-10.8H10.6A24.5 24.5 0 0 0 3 16.7z" style="mix-blend-mode:multiply"/>
  <path fill="#baa887" d="M30.5 26.9h-.3v-2.4a4.5 4.5 0 0 0-4.5-4.5 4.5 4.5 0 0 0-4.5 4.5v2.4h-.3a.4.4 0 0 0-.4.4v7.5a.4.4 0 0 0 .4.4h9.6c.2 0 .3-.2.3-.4v-7.5c0-.2-.1-.4-.3-.4zm-8-2.4a3.2 3.2 0 1 1 6.3 0v2.4h-6.3zm2.6 8.1l-2-2.4.9-.8 1.3 1.4 2.8-2.5.8 1z" style="mix-blend-mode:multiply"/>
  <path fill="#fff" d="M30.5 26.3h-.3v-2.5a4.6 4.6 0 0 0-4.5-4.5 4.5 4.5 0 0 0-4.5 4.5v2.5h-.3c-.2 0-.4.1-.4.3v7.6a.4.4 0 0 0 .4.4h9.6c.2 0 .3-.2.3-.4v-7.6a.3.3 0 0 0-.3-.3zm-8-2.5a3.2 3.2 0 0 1 6.3 0v2.5h-6.3zm2.6 8.1l-2-2.3.9-.9 1.3 1.5 2.8-2.5.8 1z"/>
  <path fill="url(#i)" d="M43.3 4.8H8a2 2 0 0 0-1.4.6C3.8 8.6.5 16 .5 16h50.3s-3.3-7.4-6.1-10.6a2 2 0 0 0-1.4-.6z"/>
  <g fill="#b89454" style="mix-blend-mode:multiply">
   <path d="M14.4 8c.8 0 1.2.5 1.2 1.3h-.8v-.1c0-.3-.1-.5-.4-.5a.5.5 0 0 0-.4.5c0 .4.2.7.7 1.1a1.9 1.9 0 0 1 .9 1.6 1.1 1.1 0 0 1-1.2 1.2 1.1 1.1 0 0 1-1.2-1.2v-.3h.8v.3c0 .4.1.5.4.5s.4-.1.4-.5-.2-.6-.7-1.1a1.8 1.8 0 0 1-.8-1.5c0-.8.4-1.3 1.1-1.3zM17.1 8c.7 0 1.1.5 1.1 1.3h-.7v-.1a.5.5 0 0 0-.4-.5c-.3 0-.4.2-.4.5s.2.7.7 1.1a2.1 2.1 0 0 1 .8 1.6c0 .8-.4 1.2-1.1 1.2a1.1 1.1 0 0 1-1.2-1.2v-.3h.7v.3c0 .4.2.5.4.5s.5-.1.5-.5-.2-.6-.7-1.1a1.7 1.7 0 0 1-.9-1.5c0-.8.4-1.3 1.2-1.3zM18.7 8.1h.8v4.3h1.3v.7h-2.1zM23.3 8c.7 0 1.1.5 1.1 1.3h-.7v-.1a.5.5 0 0 0-.4-.5c-.3 0-.4.2-.4.5a1.3 1.3 0 0 0 .6 1.1 1.9 1.9 0 0 1 .9 1.6 1.1 1.1 0 0 1-1.2 1.2c-.7 0-1.1-.4-1.1-1.2v-.3h.7v.3c0 .4.2.5.4.5s.4-.1.4-.5-.1-.6-.6-1.1a1.7 1.7 0 0 1-.9-1.5c0-.8.4-1.3 1.2-1.3zM25.6 10.2h1.1v.7h-1.1v1.5H27v.7h-2.1v-5H27v.7h-1.4zM29.7 11.2v.7c0 .8-.4 1.2-1.1 1.2a1.1 1.1 0 0 1-1.2-1.2V9.3c0-.8.4-1.3 1.2-1.3s1.1.5 1.1 1.3v.5H29v-.6a.5.5 0 0 0-.4-.5c-.3 0-.4.2-.4.5v2.7c0 .4.1.5.4.5s.4-.1.4-.5v-.7zM31 8.1v3.8c0 .4.1.5.4.5s.4-.1.4-.5V8.1h.7v3.8c0 .8-.4 1.2-1.1 1.2a1.1 1.1 0 0 1-1.2-1.2V8.1zM34.7 13.1l-.1-.6v-.8c0-.5-.1-.7-.5-.7h-.3v2.1h-.7v-5h1.1c.8 0 1.2.4 1.2 1.1v.4a1 1 0 0 1-.5 1c.4.2.5.6.5 1.1v.8a1.3 1.3 0 0 0 .1.6zm-.9-4.3v1.5h.3c.3 0 .5-.1.5-.5v-.5c0-.3-.1-.5-.4-.5zM36.7 10.2h1.1v.7h-1.1v1.5H38v.7h-2.1v-5H38v.7h-1.3z"/>
  </g>
  <path fill="#fff" d="M14.4 7.8A1.1 1.1 0 0 1 15.6 9v.2h-.8V9c0-.4-.1-.5-.4-.5s-.4.1-.4.5.2.6.7 1a1.9 1.9 0 0 1 .9 1.6 1.1 1.1 0 0 1-1.2 1.2 1.1 1.1 0 0 1-1.2-1.2v-.3h.8v.3c0 .4.1.5.4.5s.4-.1.4-.5-.2-.6-.7-1a2.1 2.1 0 0 1-.8-1.6c0-.8.4-1.2 1.1-1.2zM17.1 7.8c.7 0 1.1.4 1.1 1.2v.2h-.7V9c0-.4-.2-.5-.4-.5s-.4.1-.4.5.2.6.7 1a2.1 2.1 0 0 1 .8 1.6c0 .8-.4 1.2-1.1 1.2a1.1 1.1 0 0 1-1.2-1.2v-.3h.7v.3c0 .4.2.5.4.5s.5-.1.5-.5-.2-.6-.7-1a1.9 1.9 0 0 1-.9-1.6 1.1 1.1 0 0 1 1.2-1.2zM18.7 7.8h.8v4.3h1.3v.7h-2.1zM23.3 7.8c.7 0 1.1.4 1.1 1.2v.2h-.7V9c0-.4-.2-.5-.4-.5s-.4.1-.4.5.1.6.6 1a1.9 1.9 0 0 1 .9 1.6 1.1 1.1 0 0 1-1.2 1.2c-.7 0-1.1-.4-1.1-1.2v-.3h.7v.3c0 .4.2.5.4.5s.4-.1.4-.5-.1-.6-.6-1a1.9 1.9 0 0 1-.9-1.6 1.1 1.1 0 0 1 1.2-1.2zM25.6 9.9h1.1v.7h-1.1v1.5H27v.7h-2.1v-5H27v.7h-1.4zM29.7 10.9v.7c0 .8-.4 1.2-1.1 1.2a1.1 1.1 0 0 1-1.2-1.2V9a1.1 1.1 0 0 1 1.2-1.2c.7 0 1.1.4 1.1 1.2v.5H29V9c0-.4-.2-.5-.4-.5s-.4.1-.4.5v2.6c0 .4.1.5.4.5s.4-.1.4-.5v-.7zM31 7.8v3.9c0 .3.1.4.4.4a.4.4 0 0 0 .4-.4V7.8h.7v3.8c0 .8-.4 1.3-1.1 1.3s-1.2-.5-1.2-1.3V7.8zM34.7 12.8l-.1-.6v-.8c0-.5-.1-.6-.5-.6h-.3v2h-.7v-5h1.1A1.1 1.1 0 0 1 35.4 9v.3c0 .6-.2.9-.5 1 .4.1.5.5.5 1v.8a1.3 1.3 0 0 0 .1.6zm-.9-4.3V10h.3c.3 0 .5-.1.5-.5V9c0-.3-.1-.5-.4-.5zM36.7 9.9h1.1v.7h-1.1v1.5H38v.7h-2.1v-5H38v.7h-1.3zM25.7 38.5l.4.8.8.2-.6.6.1.9-.7-.4-.8.4.1-.9-.6-.6.9-.2.4-.8zM29.1 38.3l.3.6.6.1-.4.5.1.6-.6-.3-.6.3.1-.6-.5-.5.7-.1.3-.6zM22.3 38.3l-.3.6-.7.1.5.5-.1.6.6-.3.6.3-.2-.6.5-.5-.6-.1-.3-.6z"/>
 </g>
</svg>
